<svg version="1.1" xmlns="http://www.w3.org/2000/svg" xmlns:xlink="http://www.w3.org/1999/xlink" width="217.775" height="125.90101" viewBox="0,0,217.775,125.90101"><g transform="translate(-133.10117,-113.862)"><g data-paper-data="{&quot;isPaintingLayer&quot;:true}" fill="none" fill-rule="nonzero" stroke="none" stroke-width="none" stroke-linecap="none" stroke-linejoin="none" stroke-miterlimit="10" stroke-dasharray="" stroke-dashoffset="0" font-family="none" font-weight="none" font-size="none" text-anchor="none" style="mix-blend-mode: normal"><g data-paper-data="{&quot;index&quot;:null}" id="Pink-Stripe" fill="#fc9fe4" stroke="#fc9fe4" stroke-width="1.2" stroke-linecap="butt" stroke-linejoin="miter"><path d="M350.25117,221.92h-57.075c-0.713,-1.26 -1.625,-2.396 -2.7,-3.364h59.775z" id="Path"/><path d="M269.70117,221.92h-80.475c-0.73,-1.256 -1.649,-2.39 -2.725,-3.364h85.9c-1.068,0.975 -1.979,2.109 -2.7,3.364z" id="Path"/><path d="M168.42617,218.481c-1.067,1.004 -1.977,2.163 -2.7,3.439h-32.025v-3.439z" id="Path"/></g><path d="M138.02617,114.01h201.75c1.825,10.265 7.625,43.244 7.625,45.979v58.102h-56.925c-5.136,-4.646 -12.939,-4.646 -18.075,0h-85.9c-5.136,-4.646 -12.939,-4.646 -18.075,0h-34.725v-66.309v-33.38c-0.007,-1.158 0.445,-2.272 1.256,-3.095c0.811,-0.824 1.915,-1.291 3.069,-1.297z" data-paper-data="{&quot;index&quot;:null,&quot;origPos&quot;:null}" id="Path" fill="#eb850c" stroke="none" stroke-width="1" stroke-linecap="butt" stroke-linejoin="miter"/><g data-paper-data="{&quot;index&quot;:null}" id="Bergundy" fill="#5e154d" stroke="#5e154d" stroke-width="1.2" stroke-linecap="butt" stroke-linejoin="miter"><path d="M267.90117,228.576h-76.9c-0.009,-2.342 -0.621,-4.641 -1.775,-6.676h80.475c-1.173,2.028 -1.793,4.331 -1.8,6.676z" id="Path"/><path d="M350.25117,224.234c-0.014,2.392 -1.942,4.328 -4.325,4.342h-50.95c-0.007,-2.345 -0.627,-4.648 -1.8,-6.676h57.075z" id="Path"/><path d="M165.72617,221.9c-1.174,2.055 -1.795,4.382 -1.8,6.751h-25.9c-2.383,-0.013 -4.311,-1.949 -4.325,-4.342v-2.409z" id="Path"/></g><g data-paper-data="{&quot;index&quot;:null}" id="Top-Windows"><path d="M310.70117,123.382l9.575,25.098h-28.55l-9.575,-25.098h28.55" id="Path" fill="#a170e0" stroke="none" stroke-width="1" stroke-linecap="butt" stroke-linejoin="miter"/><path d="M312.15117,123.382l9.575,25.098h-1.45l-9.575,-25.098h1.45" id="Path" fill="#c5a2fc" stroke="none" stroke-width="1" stroke-linecap="butt" stroke-linejoin="miter"/><path d="M284.15117,123.382l9.725,25.098h-3.6l-9.6,-25.098h3.475" id="Path" fill="#c5a2fc" stroke="none" stroke-width="1" stroke-linecap="butt" stroke-linejoin="miter"/><path d="M280.67617,123.382l9.6,25.098h-60.95l-9.575,-25.098h60.925" id="Path" fill="#a170e0" stroke="none" stroke-width="1" stroke-linecap="butt" stroke-linejoin="miter"/><path d="M315.35117,123.382l9.575,25.098h-3.2l-9.575,-25.098h3.2" id="Path" fill="#a170e0" stroke="none" stroke-width="1" stroke-linecap="butt" stroke-linejoin="miter"/><path d="M320.85117,123.382l9.625,25.098h-5.55l-9.575,-25.098h5.5" id="Path" fill="#c5a2fc" stroke="none" stroke-width="1" stroke-linecap="butt" stroke-linejoin="miter"/><path d="M331.52617,123.382c2,0 1.8,-0.401 2.2,1.406c0.4,1.807 2.925,18.171 3.25,20.63c0.325,2.46 -0.5,3.113 -2.5,3.113h-4l-9.625,-25.098z" id="Path" fill="#a170e0" stroke="none" stroke-width="1" stroke-linecap="butt" stroke-linejoin="miter"/><path d="M211.07617,123.382l9.575,25.098h-61.925l-9.575,-25.098h61.925" id="Path" fill="#a170e0" stroke="none" stroke-width="1" stroke-linecap="butt" stroke-linejoin="miter"/><path d="M151.05117,123.382l9.475,25.098h-3.275l-9.575,-25.098h3.375" id="Path" fill="#c5a2fc" stroke="none" stroke-width="1" stroke-linecap="butt" stroke-linejoin="miter"/><path d="M143.62617,123.382h4.05l9.575,25.098h-13.625v-25.098" id="Path" fill="#a170e0" stroke="none" stroke-width="1" stroke-linecap="butt" stroke-linejoin="miter"/><path d="M215.05117,123.382l9.575,25.098h-5.775l-9.3,-25.098h5.5" id="Path" fill="#c5a2fc" stroke="none" stroke-width="1" stroke-linecap="butt" stroke-linejoin="miter"/><path d="M219.75117,123.382l9.575,25.098h-1.45l-9.6,-25.098h1.475" id="Path" fill="#c5a2fc" stroke="none" stroke-width="1" stroke-linecap="butt" stroke-linejoin="miter"/><path d="M218.27617,123.382l9.6,25.098h-3.25l-9.575,-25.098h3.225" id="Path" fill="#a170e0" stroke="none" stroke-width="1" stroke-linecap="butt" stroke-linejoin="miter"/><path d="M333.62617,124.738c0.4,1.807 3.075,18.321 3.35,20.63c0.275,2.309 -0.6,3.112 -2.5,3.112h-190.95v-25.098h187.875c2.025,0 1.825,-0.451 2.225,1.356z" id="Path" fill="none" stroke="#5e154d" stroke-width="0.9" stroke-linecap="round" stroke-linejoin="round"/><path d="M306.25117,148.531h-3.475v-25.199h3.475z" id="Rectangle" fill="#5e154d" stroke="#5e154d" stroke-width="0.725" stroke-linecap="round" stroke-linejoin="round"/><path d="M272.70117,148.531h-3.475v-25.199h3.475z" id="Rectangle" fill="#5e154d" stroke="#5e154d" stroke-width="0.725" stroke-linecap="round" stroke-linejoin="round"/><path d="M238.82617,148.531h-3.475v-25.199h3.475z" id="Rectangle" fill="#5e154d" stroke="#5e154d" stroke-width="0.725" stroke-linecap="round" stroke-linejoin="round"/><path d="M204.92617,148.531h-3.475v-25.199h3.475z" id="Rectangle" fill="#5e154d" stroke="#5e154d" stroke-width="0.725" stroke-linecap="round" stroke-linejoin="round"/><path d="M171.02617,148.531h-3.475v-25.199h3.475z" id="Rectangle" fill="#5e154d" stroke="#5e154d" stroke-width="0.725" stroke-linecap="round" stroke-linejoin="round"/></g><g data-paper-data="{&quot;index&quot;:null}" id="Left-Wheel"><path d="M286.60517,223.521c1.295,1.3 2.096,3.094 2.096,5.075c0,1.98 -0.801,3.775 -2.096,5.074c-1.294,1.299 -3.081,2.104 -5.054,2.104c-1.973,0 -3.76,-0.805 -5.054,-2.104c-1.295,-1.299 -2.096,-3.094 -2.096,-5.074c0,-1.981 0.801,-3.775 2.096,-5.075c1.294,-1.299 3.081,-2.103 5.054,-2.103c1.973,0 3.76,0.804 5.054,2.103z" id="Oval" fill="#fde982" stroke="none" stroke-width="1" stroke-linecap="butt" stroke-linejoin="miter"/><path d="M281.45117,218.481c5.771,0 10.45,4.697 10.45,10.491c0,5.794 -4.679,10.491 -10.45,10.491c-5.771,0 -10.45,-4.697 -10.45,-10.491c0,-5.794 4.679,-10.491 10.45,-10.491zM281.45117,234.945c2.419,0 4.599,-1.464 5.523,-3.708c0.923,-2.245 0.407,-4.827 -1.307,-6.54c-1.714,-1.714 -4.288,-2.221 -6.52,-1.285c-2.232,0.937 -3.681,3.132 -3.671,5.56c0,1.589 0.63,3.112 1.752,4.233c1.121,1.121 2.641,1.747 4.223,1.74z" id="Shape" fill="#5e154d" stroke="#5e154d" stroke-width="0.6" stroke-linecap="round" stroke-linejoin="round"/><path d="M283.55417,226.861c0.539,0.54 0.872,1.287 0.872,2.111c0,0.824 -0.333,1.571 -0.872,2.111c-0.538,0.541 -1.282,0.876 -2.103,0.876c-0.821,0 -1.565,-0.335 -2.103,-0.876c-0.539,-0.54 -0.872,-1.287 -0.872,-2.111c0,-0.824 0.333,-1.571 0.872,-2.111c0.538,-0.541 1.282,-0.876 2.103,-0.876c0.821,0 1.565,0.335 2.103,0.876z" id="Oval" fill="#ffffff" stroke="#a170e0" stroke-width="0.9" stroke-linecap="round" stroke-linejoin="round"/></g><g data-paper-data="{&quot;index&quot;:null}" id="Right-Wheel"><path d="M182.53017,223.521c1.295,1.3 2.096,3.094 2.096,5.075c0,1.98 -0.801,3.775 -2.096,5.074c-1.294,1.299 -3.081,2.104 -5.054,2.104c-1.973,0 -3.76,-0.805 -5.054,-2.104c-1.295,-1.299 -2.096,-3.094 -2.096,-5.074c0,-1.981 0.801,-3.775 2.096,-5.075c1.294,-1.299 3.081,-2.103 5.054,-2.103c1.973,0 3.76,0.804 5.054,2.103z" id="Oval" fill="#fde982" stroke="none" stroke-width="1" stroke-linecap="butt" stroke-linejoin="miter"/><path d="M177.47617,218.481c5.765,0.028 10.418,4.737 10.4,10.524c-0.018,5.788 -4.702,10.467 -10.467,10.458c-5.764,-0.009 -10.433,-4.703 -10.433,-10.491c0,-2.791 1.108,-5.467 3.078,-7.436c1.971,-1.969 4.642,-3.068 7.422,-3.055zM177.47617,234.945c2.421,0.011 4.609,-1.447 5.54,-3.691c0.932,-2.244 0.422,-4.83 -1.29,-6.548c-1.712,-1.719 -4.288,-2.231 -6.523,-1.296c-2.235,0.935 -3.687,3.131 -3.677,5.562c0,3.299 2.664,5.973 5.95,5.973z" id="Shape" fill="#5e154d" stroke="#5e154d" stroke-width="0.6" stroke-linecap="round" stroke-linejoin="round"/><path d="M179.57917,226.861c0.539,0.54 0.872,1.287 0.872,2.111c0,0.824 -0.333,1.571 -0.872,2.111c-0.538,0.541 -1.282,0.876 -2.103,0.876c-0.821,0 -1.565,-0.335 -2.103,-0.876c-0.539,-0.54 -0.872,-1.287 -0.872,-2.111c0,-0.824 0.333,-1.571 0.872,-2.111c0.538,-0.541 1.282,-0.876 2.103,-0.876c0.821,0 1.565,0.335 2.103,0.876z" id="Oval" fill="#ffffff" stroke="#a170e0" stroke-width="0.9" stroke-linecap="round" stroke-linejoin="round"/></g><g data-paper-data="{&quot;index&quot;:null}" id="Left-Door-Windows"><path d="M300.50117,176.75h37.5v51.853h-37.5v-51.853" id="Path" fill="#fde982" stroke="#5e154d" stroke-width="0.9" stroke-linecap="butt" stroke-linejoin="round"/><path d="M321.27617,180.992h12.625v37.496h-12.625v-37.496" id="Path" fill="#8b49d4" stroke="#ffffff" stroke-width="0.9" stroke-linecap="round" stroke-linejoin="round"/><path d="M312.12617,180.992l5,13.251v3.966l-6.55,-17.217h1.55" id="Path" fill="#b388ed" stroke="none" stroke-width="1" stroke-linecap="butt" stroke-linejoin="miter"/><path d="M317.17617,180.992v13.327l-5,-13.252l5,-0.075" id="Path" fill="#8b49d4" stroke="none" stroke-width="1" stroke-linecap="butt" stroke-linejoin="miter"/><path d="M305.95117,180.992l11.225,29.44v8.056h-12.5v-37.496h1.275" id="Path" fill="#8b49d4" stroke="none" stroke-width="1" stroke-linecap="butt" stroke-linejoin="miter"/><path d="M309.17617,180.992l8,21.007v8.433l-11.225,-29.44h3.225" id="Path" fill="#b388ed" stroke="none" stroke-width="1" stroke-linecap="butt" stroke-linejoin="miter"/><path d="M310.62617,180.992l6.55,17.217v3.79l-8,-21.007h1.45" id="Path" fill="#8b49d4" stroke="none" stroke-width="1" stroke-linecap="butt" stroke-linejoin="miter"/><path d="M317.17617,180.992v37.496h-12.5v-37.496h12.5" id="Path" fill="none" stroke="#ffffff" stroke-width="0.9" stroke-linecap="round" stroke-linejoin="round"/></g><g data-paper-data="{&quot;index&quot;:null}" id="Right-Door-Windows"><path d="M196.17617,176.75h37.5v51.853h-37.5v-51.853" id="Path" fill="#fde982" stroke="#5e154d" stroke-width="0.9" stroke-linecap="butt" stroke-linejoin="round"/><path d="M200.20117,180.992h12.5v37.496h-12.5v-37.496" id="Path" fill="#8b49d4" stroke="#ffffff" stroke-width="0.9" stroke-linecap="round" stroke-linejoin="round"/><path d="M221.97617,180.992l7.5,19.601v8.433l-10.675,-28.034h3.175" id="Path" fill="#b388ed" stroke="none" stroke-width="1" stroke-linecap="butt" stroke-linejoin="miter"/><path d="M218.87617,180.992l10.6,28.034v9.462h-12.5v-37.496h1.9" id="Path" fill="#8b49d4" stroke="none" stroke-width="1" stroke-linecap="butt" stroke-linejoin="miter"/><path d="M229.47617,180.992v19.601l-7.5,-19.601h7.5" id="Path" fill="#8b49d4" stroke="none" stroke-width="1" stroke-linecap="butt" stroke-linejoin="miter"/><path d="M216.97617,180.992h12.5v37.496h-12.5v-37.496" id="Path" fill="none" stroke="#ffffff" stroke-width="0.9" stroke-linecap="round" stroke-linejoin="round"/></g><g data-paper-data="{&quot;index&quot;:null}" id="Left-Bar" stroke-linecap="butt" stroke-linejoin="miter"><path d="M340.75117,176.75h4.3v19.627l-4.3,-11.32v-8.307" id="Path" fill="#8b49d4" stroke="none" stroke-width="1"/><path d="M345.05117,202.124v4.744c0.056,1.172 -0.375,2.315 -1.19,3.157c-0.815,0.842 -1.941,1.307 -3.11,1.285v-20.53z" id="Path" fill="#8b49d4" stroke="none" stroke-width="1"/><path d="M340.75117,185.032l4.3,11.32v5.772l-4.3,-11.344v-5.748" id="Path" fill="#b388ed" stroke="none" stroke-width="1"/><path d="M340.75117,176.75h4.3v30.118c0.056,1.172 -0.375,2.315 -1.19,3.157c-0.815,0.842 -1.941,1.307 -3.11,1.285z" id="Path" fill="none" stroke="#5e154d" stroke-width="0.9"/></g><g data-paper-data="{&quot;index&quot;:null}" id="Left-Window"><path d="M282.87617,176.71l9.6,25.098h-3.65l-9.575,-25.098h3.625" id="Path" fill="#b388ed" stroke="none" stroke-width="1" stroke-linecap="butt" stroke-linejoin="miter"/><path d="M294.97617,176.71v25.098h-2.5l-9.6,-25.098h12.1" id="Path" fill="#8b49d4" stroke="none" stroke-width="1" stroke-linecap="butt" stroke-linejoin="miter"/><path d="M276.27617,176.71l9.575,25.098h-1.5l-9.575,-25.098h1.5" id="Path" fill="#b388ed" stroke="none" stroke-width="1" stroke-linecap="butt" stroke-linejoin="miter"/><path d="M279.25117,176.71l9.575,25.098h-2.975l-9.575,-25.098h2.975" id="Path" fill="#8b49d4" stroke="none" stroke-width="1" stroke-linecap="butt" stroke-linejoin="miter"/><path d="M239.02617,176.71h35.75l9.575,25.098h-45.325v-25.098" id="Path" fill="#8b49d4" stroke="none" stroke-width="1" stroke-linecap="butt" stroke-linejoin="miter"/><path d="M239.02617,176.71h55.95v25.098h-55.95v-25.098" id="Path" fill="none" stroke="#5e154d" stroke-width="0.9" stroke-linecap="round" stroke-linejoin="round"/><path d="M268.55117,201.883h-3.475v-25.198h3.475z" id="Rectangle" fill="#5e154d" stroke="#5e154d" stroke-width="0.725" stroke-linecap="round" stroke-linejoin="round"/></g><g data-paper-data="{&quot;index&quot;:null}" id="Right-Window"><path d="M168.00117,176.71l9.575,25.098h-4.525l-9.575,-25.098h4.525" id="Path" fill="#b388ed" stroke="none" stroke-width="1" stroke-linecap="butt" stroke-linejoin="miter"/><path d="M163.47617,176.71l9.575,25.098h-3.1l-9.575,-25.098h3.1" id="Path" fill="#8b49d4" stroke="none" stroke-width="1" stroke-linecap="butt" stroke-linejoin="miter"/><path d="M160.37617,176.71l9.575,25.098h-2.05l-9.575,-25.098h2.05" id="Path" fill="#b388ed" stroke="none" stroke-width="1" stroke-linecap="butt" stroke-linejoin="miter"/><path d="M190.97617,176.71v25.098h-13.4l-9.575,-25.098h22.975" id="Path" fill="#8b49d4" stroke="none" stroke-width="1" stroke-linecap="butt" stroke-linejoin="miter"/><path d="M144.47617,176.71h13.875l9.55,25.098h-23.425v-25.098" id="Path" fill="#8b49d4" stroke="none" stroke-width="1" stroke-linecap="butt" stroke-linejoin="miter"/><path d="M144.72617,176.71h46.525v25.098h-46.525v-25.098" id="Path" fill="none" stroke="#5e154d" stroke-width="0.9" stroke-linecap="round" stroke-linejoin="round"/><path d="M182.87617,201.883h-3.475v-25.198h3.475z" id="Rectangle" fill="#5e154d" stroke="#5e154d" stroke-width="0.725" stroke-linecap="round" stroke-linejoin="round"/><path d="M156.60117,201.883h-3.475v-25.198h3.475z" id="Rectangle" fill="#5e154d" stroke="#5e154d" stroke-width="0.725" stroke-linecap="round" stroke-linejoin="round"/></g><g data-paper-data="{&quot;index&quot;:null}" id="Pattern" fill="none" stroke="#d81d7b" stroke-width="1.2" stroke-linecap="butt" stroke-linejoin="miter"><path d="M339.20117,155.44l1.4,-3.037" id="Path"/><path d="M328.12617,163.07l1.425,-3.238" id="Path"/><path d="M319.20117,155.54l2.525,-0.878" id="Path"/><path d="M294.80117,173.259l3.625,-0.2" id="Path"/><path d="M308.70117,154.085l2.675,2.083" id="Path"/><path d="M287.82617,153.557l-1.75,2.259" id="Path"/><path d="M274.30117,154.637l-2.725,-1.582" id="Path"/><path d="M255.00117,153.633l-3.35,-0.151" id="Path"/><path d="M231.55117,167.236l-1.9,2.485" id="Path"/><path d="M256.27617,173.485l3.5,-0.577" id="Path"/><path d="M234.47617,158.828l-2.95,-1.054" id="Path"/><path d="M206.30117,171.528l3.2,1.129" id="Path"/><path d="M172.75117,171.728l-2.8,-2.183" id="Path"/><path d="M211.50117,152.88l-2.7,2.384" id="Path"/><path d="M192.32617,153.984l4.375,0.201" id="Path"/><path d="M174.12617,154.085l-2.85,1.982" id="Path"/><path d="M153.75117,155.44l1.8,2.033" id="Path"/><path d="M144.45117,159.832l-2.85,-0.527" id="Path"/><path d="M143.77617,169.645l-1.525,2.661" id="Path"/><path d="M154.77617,171.302l-0.55,-3.313" id="Path"/><path d="M166.40117,162.643h-2.925" id="Path"/><path d="M317.10117,163.823l0.25,3.137" id="Path"/><path d="M278.40117,170.398l2.175,2.887" id="Path"/><path d="M329.82617,170.147l-3.05,1.958" id="Path"/><path d="M341.25117,167.01l-3.325,-1.029" id="Path"/></g><g data-paper-data="{&quot;index&quot;:null,&quot;origPos&quot;:null}" id="Highlight" fill="#ff6c00"><path d="M339.77617,114.01c1.701,-0.146 3.204,1.106 3.375,2.811c0.475,2.033 5,27.608 6.025,34.886c0.125,0.728 0.225,1.28 0.275,1.606c0.512,3.322 0.779,6.678 0.8,10.04v54.713h-2.85v-58.026c0,-2.736 -5.8,-35.715 -7.625,-46.03z" id="Path" stroke="none" stroke-width="1" stroke-linecap="butt" stroke-linejoin="miter"/><path d="M136.57617,125.731v-4.393c0,-3.087 1.125,-4.065 4.2,-4.065h3.7" id="Path" stroke="#ffffff" stroke-width="1.5" stroke-linecap="round" stroke-linejoin="round"/><path d="M147.25117,117.273h2.5" id="Path" stroke="#ffffff" stroke-width="1.5" stroke-linecap="round" stroke-linejoin="round"/><path d="M270.97617,117.273h50.3" id="Path" stroke="#f48cc5" stroke-width="1.5" stroke-linecap="round" stroke-linejoin="round"/><path d="M268.10117,117.273h-4.725" id="Path" stroke="#f48cc5" stroke-width="1.5" stroke-linecap="round" stroke-linejoin="round"/></g><path d="M138.02617,114.462h201.45c2.375,0 3.25,0.853 3.725,2.811c0.475,1.957 5.775,33.204 6.275,36.492c0.511,3.322 0.779,6.678 0.8,10.039v60.487c-0.014,2.392 -1.942,4.328 -4.325,4.342h-50.975c0,-7.499 -6.055,-13.578 -13.525,-13.578c-3.339,-0.007 -6.563,1.227 -9.05,3.463c-1.072,0.989 -1.983,2.141 -2.7,3.413c-1.185,2.051 -1.807,4.381 -1.8,6.752h-76.9c0.004,-2.367 -0.608,-4.695 -1.775,-6.752c-0.73,-1.255 -1.649,-2.389 -2.725,-3.363c-5.145,-4.623 -12.93,-4.623 -18.075,0c-1.061,0.981 -1.971,2.114 -2.7,3.363c-1.174,2.055 -1.795,4.382 -1.8,6.752h-25.9c-2.383,-0.014 -4.311,-1.95 -4.325,-4.342v-105.412c-0.027,-1.171 0.416,-2.304 1.229,-3.144c0.814,-0.84 1.929,-1.317 3.096,-1.323z" data-paper-data="{&quot;index&quot;:null}" id="Path" fill="none" stroke="#5e154d" stroke-width="1.2" stroke-linecap="round" stroke-linejoin="round"/></g></g></svg>